<!DOCTYPE svg PUBLIC "-//W3C//DTD SVG 1.1//EN" "http://www.w3.org/Graphics/SVG/1.1/DTD/svg11.dtd">
<!-- Uploaded to: SVG Repo, www.svgrepo.com, Transformed by: SVG Repo Mixer Tools -->
<svg fill="#000000" height="256px" width="256px" version="1.1" id="Layer_1" xmlns="http://www.w3.org/2000/svg" xmlns:xlink="http://www.w3.org/1999/xlink" viewBox="-61.44 -61.44 634.88 634.88" xml:space="preserve" transform="matrix(-1, 0, 0, 1, 0, 0)" stroke="#000000" stroke-width="0.00512">
<g id="SVGRepo_bgCarrier" stroke-width="0">
<rect x="-61.44" y="-61.44" width="634.88" height="634.88" rx="317.44" fill="#ffffff" strokewidth="0"/>
</g>
<g id="SVGRepo_tracerCarrier" stroke-linecap="round" stroke-linejoin="round"/>
<g id="SVGRepo_iconCarrier"> <g> <g> <path d="M299.133,39.63c-5.958,0-11.985,0.295-17.982,0.849C273.215,16.976,250.974,0,224.826,0 c-32.78,0-59.445,26.665-59.445,59.445c0,9.999,2.491,19.423,6.869,27.703c-42.221,36.776-66.315,89.521-66.315,145.679 c0,36.002,9.869,70.833,28.619,101.243L22.573,446.053c-3.87,3.87-3.87,10.14,0,14.01l49.035,49.035 c1.935,1.935,4.47,2.903,7.005,2.903s5.07-0.968,7.005-2.903l111.915-111.915c30.487,18.896,65.444,28.842,101.601,28.842 c106.526,0,193.197-86.672,193.197-193.197S405.658,39.63,299.133,39.63z M224.826,19.815c21.857,0,39.63,17.774,39.63,39.63 c0,21.857-17.774,39.63-39.63,39.63c-21.857,0-39.63-17.773-39.63-39.63C185.196,37.589,202.969,19.815,224.826,19.815z M299.133,406.21c-34.928,0-68.598-10.333-97.363-29.897c-3.919-2.67-9.211-2.177-12.578,1.19L78.612,488.082l-35.025-35.025 L154.225,342.42c3.357-3.357,3.86-8.621,1.2-12.559c-19.409-28.697-29.674-62.251-29.674-97.034c0-9.557,0.793-19,2.312-28.259 L327.37,403.873C318.174,405.387,308.75,406.21,299.133,406.21z M350.076,398.561L133.413,181.896 c9.262-30.226,26.716-57.539,50.955-78.951c10.619,9.884,24.839,15.945,40.457,15.945c32.543,0,59.044-26.283,59.426-58.739 c4.971-0.423,9.954-0.706,14.881-0.706c95.602,0,173.382,77.78,173.382,173.382C472.515,310.707,420.894,376.748,350.076,398.561z "/> </g> </g> </g>
</svg>